<svg xmlns="http://www.w3.org/2000/svg" width="374" height="374" viewBox="0 0 374 374">
  <path id="Subtraction_1" data-name="Subtraction 1" d="M1021,817a188.385,188.385,0,0,1-37.687-3.8,185.975,185.975,0,0,1-66.866-28.138A187.545,187.545,0,0,1,848.7,702.789a186.061,186.061,0,0,1-10.9-35.1,188.824,188.824,0,0,1,0-75.374,185.982,185.982,0,0,1,28.137-66.866A187.547,187.547,0,0,1,948.211,457.7a186.054,186.054,0,0,1,35.1-10.9,188.822,188.822,0,0,1,75.374,0,185.973,185.973,0,0,1,66.867,28.138,187.543,187.543,0,0,1,67.751,82.275,186.042,186.042,0,0,1,10.9,35.1,188.821,188.821,0,0,1,0,75.374,185.979,185.979,0,0,1-28.137,66.866,187.549,187.549,0,0,1-82.275,67.751,186.074,186.074,0,0,1-35.1,10.9A188.388,188.388,0,0,1,1021,817Zm0-302a115,115,0,1,0,115,115A115.13,115.13,0,0,0,1021,515Z" transform="translate(-834 -443)"/>
</svg>
